<?xml version="1.0" standalone="no"?>
<!DOCTYPE svg PUBLIC "-//W3C//DTD SVG 20010904//EN"
 "http://www.w3.org/TR/2001/REC-SVG-20010904/DTD/svg10.dtd">
<svg version="1.0" xmlns="http://www.w3.org/2000/svg"
 width="1024.000000pt" height="1024.000000pt" viewBox="0 0 1024.000000 1024.000000"
 preserveAspectRatio="xMidYMid meet">
<metadata>
Created by potrace 1.11, written by Peter Selinger 2001-2013
</metadata>
<g transform="translate(0.000000,1024.000000) scale(0.100000,-0.100000)"
fill="#000000" stroke="none">
<path d="M4959 10006 c-2 -2 -29 -7 -59 -11 -132 -16 -303 -68 -442 -135 -80
-38 -128 -64 -251 -136 -32 -19 -60 -34 -62 -34 -2 0 -26 -13 -53 -29 -52 -31
-124 -71 -187 -107 -22 -12 -116 -66 -210 -119 -93 -54 -192 -110 -220 -125
-27 -15 -109 -61 -182 -103 -72 -42 -162 -92 -200 -113 -37 -20 -72 -40 -78
-44 -5 -4 -30 -19 -55 -32 -47 -27 -204 -118 -255 -149 -16 -10 -41 -24 -55
-32 -14 -8 -65 -38 -115 -67 -49 -29 -101 -59 -115 -67 -14 -8 -38 -23 -55
-33 -16 -11 -37 -23 -45 -27 -12 -6 -79 -45 -210 -123 -8 -5 -109 -64 -225
-131 -115 -68 -221 -130 -235 -140 -14 -9 -70 -42 -125 -74 -95 -54 -226 -138
-252 -160 -115 -99 -193 -177 -254 -253 -41 -51 -76 -98 -78 -105 -2 -7 -7
-14 -11 -17 -11 -8 -73 -119 -108 -193 -70 -147 -122 -346 -137 -517 -19 -222
-20 -3382 0 -3620 14 -182 65 -357 162 -555 26 -55 29 -59 90 -155 42 -65 158
-208 197 -243 12 -10 37 -33 56 -51 19 -17 53 -45 75 -61 22 -16 48 -37 58
-47 10 -10 24 -18 32 -18 8 0 15 -4 15 -8 0 -5 10 -14 22 -20 13 -6 46 -25 73
-42 28 -16 83 -49 123 -72 40 -24 90 -53 110 -65 20 -13 44 -26 52 -30 14 -7
275 -161 310 -182 62 -39 171 -101 175 -101 3 0 11 -5 18 -10 12 -11 100 -64
175 -106 23 -13 103 -60 177 -104 75 -45 140 -78 147 -74 6 4 8 3 4 -4 -3 -6
6 -17 21 -25 16 -8 115 -65 221 -126 107 -61 197 -111 201 -111 4 0 12 -5 19
-12 7 -7 45 -30 86 -53 40 -22 98 -54 127 -71 30 -17 77 -43 104 -58 28 -16
64 -36 80 -46 17 -10 50 -29 75 -42 25 -14 178 -101 340 -193 397 -227 550
-304 581 -292 3 1 12 -3 20 -9 15 -12 91 -35 179 -54 160 -34 457 -35 600 -1
19 4 37 8 40 9 63 10 233 68 315 108 41 19 133 69 207 110 152 87 205 117 268
152 25 14 74 42 110 62 36 21 83 48 105 60 22 13 54 31 70 41 17 10 39 23 51
28 17 8 182 101 409 233 28 16 58 32 68 35 9 3 17 9 17 14 0 5 5 9 10 9 6 0
43 19 83 41 40 23 88 50 107 61 19 11 60 35 91 54 31 19 59 34 63 34 3 0 30
15 59 34 28 18 117 72 197 118 80 47 224 132 320 189 96 57 186 109 199 116
13 8 50 29 81 48 32 19 62 35 68 35 6 0 12 4 14 8 2 5 45 33 97 63 52 30 119
69 150 87 31 18 66 38 79 44 12 6 22 15 22 20 0 5 4 7 9 3 5 -3 13 0 16 5 4 6
17 16 28 21 12 5 36 18 52 29 17 11 37 23 45 27 8 3 17 9 20 12 3 4 27 22 53
41 27 19 65 50 85 69 20 18 44 38 52 45 19 14 117 122 148 161 98 128 144 205
216 367 15 31 26 62 26 68 0 5 4 18 9 28 23 42 70 263 77 362 13 194 19 1898
10 2920 -6 693 -8 727 -36 868 -75 366 -282 692 -580 916 -74 55 -545 340
-845 511 -20 11 -113 66 -208 122 -361 213 -685 401 -752 437 -38 21 -74 42
-80 46 -5 4 -35 21 -65 37 -30 17 -120 68 -200 113 -80 46 -170 97 -200 113
-30 17 -67 38 -82 49 -14 10 -29 18 -32 18 -2 0 -31 15 -63 34 -32 18 -78 45
-103 58 -25 14 -108 61 -185 105 -205 117 -232 132 -320 178 -80 42 -256 109
-310 118 -17 3 -52 10 -80 16 -27 6 -63 13 -80 17 -33 7 -370 15 -376 10z"/>
</g>
</svg>
