<?xml version="1.0" standalone="no"?>
<!DOCTYPE svg PUBLIC "-//W3C//DTD SVG 20010904//EN"
 "http://www.w3.org/TR/2001/REC-SVG-20010904/DTD/svg10.dtd">
<svg version="1.0" xmlns="http://www.w3.org/2000/svg"
 width="1024.000000pt" height="1024.000000pt" viewBox="0 0 1024.000000 1024.000000"
 preserveAspectRatio="xMidYMid meet">
<metadata>
Created by potrace 1.11, written by Peter Selinger 2001-2013
</metadata>
<g transform="translate(0.000000,1024.000000) scale(0.100000,-0.100000)"
fill="#000000" stroke="none">
<path d="M4965 10004 c-200 -29 -347 -68 -479 -128 -72 -33 -1368 -764 -1721
-971 -970 -567 -1410 -830 -1481 -883 -288 -216 -491 -537 -574 -907 -36 -159
-41 -428 -41 -2070 0 -1625 2 -1739 42 -1924 83 -382 322 -733 644 -948 191
-127 2530 -1483 2539 -1471 3 4 2 -2 165 798 77 377 239 1169 361 1760 121
591 220 1078 220 1082 0 4 -468 8 -1040 8 -572 0 -1040 2 -1040 5 0 3 27 53
60 112 33 58 60 107 60 109 0 3 10 21 23 42 13 20 37 62 54 92 16 30 89 161
162 290 73 129 155 276 183 325 28 50 70 124 93 165 41 71 1487 2646 1930
3435 322 573 545 974 545 979 0 9 -160 57 -256 76 -95 20 -376 35 -449 24z"/>
<path d="M6287 9548 c-3 -13 -76 -378 -162 -813 -86 -434 -196 -992 -245
-1240 -158 -796 -300 -1519 -300 -1527 0 -4 468 -8 1040 -8 572 0 1040 -2
1040 -4 0 -2 -502 -883 -1116 -1958 -615 -1074 -1330 -2326 -1590 -2782 -261
-455 -474 -832 -474 -836 0 -11 138 -64 232 -90 134 -36 246 -50 403 -50 222
0 396 34 590 115 107 45 1345 742 2020 1138 1269 744 1226 717 1385 877 263
266 414 603 440 984 14 208 20 1874 10 2771 -8 752 -10 830 -29 935 -71 405
-310 780 -642 1007 -77 53 -1582 933 -1919 1123 -179 101 -403 227 -499 282
-95 54 -174 98 -176 98 -2 0 -5 -10 -8 -22z"/>
</g>
</svg>
